:SAMPLES-PER-SECOND 30
:FULLY-SPECIFIED
:DEGREES
97
root  -62.0554 36.4893 -31.6688 35.4175 -1.888 0.8181
RightUpLeg  -77.0246 -21.746 24.7003
RightLeg  43.0823 -6.04897 -6.33165
RightFoot  -7.50143 0.231175 -8.38008
RightToes  0.00048216 0.542163 -0.142577
Spine  73.4992 -5.80658 8.28811
Spine1  4.62712 1.8224 -6.91723
HEad  -53.2924 -4.15494 2.49682
LeftShoulder1  6.50718 -28.521 -13.1241
LeftArm  -88.5037 -69.4155 27.7866
LeftForeArm  -6.85885 -17.4153 -2.25847
LeftHand  -0.25398 0.0180481 5.50724
RightShoulder  1.87312 11.0942 5.0335
RightArm  -80.9619 57.1898 -17.1871
RightForeArm  -12.6322 22.5852 5.38704
RightHand  0.507001 8.62351 3.68902
LeftUpLeg  -73.8644 14.6241 -20.9228
LeftLeg  38.7002 4.14727 3.93377
LeftFoot  -4.38088 -0.462645 8.02764
LeftToes  1.06244e-005 4.65854e-005 -8.18505e-006
98
root  -61.9842 36.7292 -31.7724 34.5078 -2.1077 0.813461
RightUpLeg  -75.5127 -22.4772 24.7601
RightLeg  41.3135 -5.67624 -5.61654
RightFoot  -6.58167 0.320933 -8.7626
RightToes  0.00048216 0.542163 -0.142577
Spine  72.9637 -5.67944 7.87576
Spine1  5.22132 1.4652 -6.3641
HEad  -53.1129 -3.85632 1.2868
LeftShoulder1  6.66956 -27.5165 -14.4253
LeftArm  -89.2818 -69.6045 29.5414
LeftForeArm  -6.62254 -16.1984 -1.54047
LeftHand  -0.25398 0.0180481 5.50724
RightShoulder  1.87209 11.8568 4.28754
RightArm  -79.8688 57.3116 -15.0075
RightForeArm  -11.4527 24.1252 5.72835
RightHand  0.482295 7.87653 3.73229
LeftUpLeg  -72.0429 14.8551 -20.6507
LeftLeg  36.8868 4.42646 3.92756
LeftFoot  -3.5382 -0.545825 8.30069
LeftToes  1.06244e-005 4.65854e-005 -8.18505e-006
99
root  -61.8955 37.0059 -31.8843 33.2874 -2.27548 0.939362
RightUpLeg  -73.6514 -23.4857 24.6491
RightLeg  39.3329 -5.29392 -4.91918
RightFoot  -5.62655 0.425961 -9.26372
RightToes  0.00048216 0.542163 -0.142577
Spine  72.6225 -5.64506 7.712
Spine1  5.4646 1.43826 -6.21345
HEad  -52.3275 -4.44542 0.853462
LeftShoulder1  6.87558 -27.474 -15.1849
LeftArm  -86.7072 -69.2975 27.9724
LeftForeArm  -5.13482 -16.1497 -1.6503
LeftHand  -0.25398 0.0180481 5.50724
RightShoulder  2.00964 11.9515 5.21253
RightArm  -77.5309 57.4897 -13.6113
RightForeArm  -11.3941 25.9385 6.13856
RightHand  0.464144 6.79681 3.96031
LeftUpLeg  -69.9598 15.0532 -20.4716
LeftLeg  35.1385 4.88777 4.05152
LeftFoot  -2.19139 -0.677921 8.61737
LeftToes  1.06244e-005 4.65854e-005 -8.18505e-006
100
root  -61.8043 37.3102 -31.9937 32.0058 -2.46718 1.0125
RightUpLeg  -71.5799 -24.543 24.5506
RightLeg  37.1105 -4.75767 -4.12717
RightFoot  -4.53928 0.545814 -9.66816
RightToes  0.00048216 0.542163 -0.142577
Spine  72.0276 -5.38383 7.61171
Spine1  5.74821 1.57996 -5.92455
HEad  -51.4213 -4.99565 0.653456
LeftShoulder1  7.01619 -27.7097 -15.4848
LeftArm  -82.4101 -68.8064 24.43
LeftForeArm  -4.46798 -16.6685 -2.13772
LeftHand  -0.25398 0.0180481 5.50724
RightShoulder  2.11847 11.502 6.48857
RightArm  -74.4915 57.6987 -11.8706
RightForeArm  -12.6774 27.9644 6.68585
RightHand  0.387707 5.73484 3.62183
LeftUpLeg  -67.6843 15.4447 -20.3987
LeftLeg  33.0553 5.25086 4.02812
LeftFoot  -0.730279 -0.843188 9.10514
LeftToes  1.06244e-005 4.65854e-005 -8.18505e-006
101
root  -61.7057 37.621 -32.0925 30.7978 -2.67876 0.957489
RightUpLeg  -69.3837 -25.5126 24.496
RightLeg  34.6609 -4.20777 -3.38415
RightFoot  -3.34356 0.663998 -9.79101
RightToes  0.00048216 0.542163 -0.142577
Spine  71.0365 -4.96125 7.7301
Spine1  5.83023 1.94089 -5.74136
HEad  -50.3805 -5.53773 0.303887
LeftShoulder1  7.38126 -28.6463 -15.9951
LeftArm  -77.0328 -68.1393 19.3308
LeftForeArm  -3.83944 -17.5481 -2.72764
LeftHand  -0.25398 0.0180481 5.50724
RightShoulder  2.33048 11.0303 8.61942
RightArm  -70.1617 57.4911 -10.228
RightForeArm  -15.5334 30.1331 7.36783
RightHand  0.258068 4.87959 2.53595
LeftUpLeg  -65.1753 16.1157 -20.3847
LeftLeg  30.3291 5.19833 3.63009
LeftFoot  0.464487 -1.00752 9.69272
LeftToes  1.06244e-005 4.65854e-005 -8.18505e-006
102
root  -61.596 37.9317 -32.1837 29.4665 -2.79599 0.948013
RightUpLeg  -66.9397 -26.5385 24.2199
RightLeg  32.0837 -3.86236 -2.85658
RightFoot  -2.26697 0.755257 -9.67767
RightToes  0.00048216 0.542163 -0.142577
Spine  69.7144 -4.56333 7.08952
Spine1  6.70265 1.36268 -4.5809
HEad  -49.9183 -4.50249 -1.0694
LeftShoulder1  7.7632 -27.5114 -18.2374
LeftArm  -73.8309 -67.9222 17.7031
LeftForeArm  -4.0922 -18.5393 -3.44858
LeftHand  -0.25398 0.0180481 5.50724
RightShoulder  2.31716 11.5614 7.8827
RightArm  -66.9475 57.531 -6.79845
RightForeArm  -17.421 31.9461 7.93834
RightHand  0.134872 4.15311 1.29594
LeftUpLeg  -62.2871 16.8841 -20.3582
LeftLeg  27.1772 4.76548 2.99507
LeftFoot  1.54347 -1.15911 10.1533
LeftToes  1.06244e-005 4.65854e-005 -8.18505e-006
103
root  -61.4888 38.2426 -32.2797 27.8579 -2.7124 1.11601
RightUpLeg  -64.1688 -27.7175 23.535
RightLeg  29.4837 -3.71271 -2.51023
RightFoot  -1.37109 0.828621 -9.57272
RightToes  0.00048216 0.542163 -0.142577
Spine  68.7091 -4.6 6.8269
Spine1  6.94473 1.03714 -4.56934
HEad  -48.8944 -4.21627 -1.38363
LeftShoulder1  8.07665 -27.2668 -19.5516
LeftArm  -68.5069 -67.6035 13.2295
LeftForeArm  -4.52733 -19.4614 -3.98863
LeftHand  -0.25398 0.0180481 5.50724
RightShoulder  2.55688 11.9413 9.19825
RightArm  -62.8469 57.24 -4.63036
RightForeArm  -19.4346 33.4089 8.43934
RightHand  0.0639373 3.39978 0.543247
LeftUpLeg  -59.0682 17.5593 -20.3079
LeftLeg  24.0308 4.27624 2.41735
LeftFoot  2.81268 -1.29875 10.2959
LeftToes  1.06244e-005 4.65854e-005 -8.18505e-006
104
root  -61.395 38.5432 -32.3871 26.1453 -2.45772 1.26836
RightUpLeg  -61.3079 -28.9075 22.6676
RightLeg  27.0604 -3.43697 -2.14111
RightFoot  -0.338554 0.911971 -9.46185
RightToes  0.00048216 0.542163 -0.142577
Spine  67.8422 -4.74075 6.61516
Spine1  7.2242 0.735939 -4.68609
HEad  -47.745 -4.05692 -1.33163
LeftShoulder1  8.23471 -26.97 -20.3835
LeftArm  -62.9227 -67.1443 7.97653
LeftForeArm  -5.64205 -20.2666 -4.39553
LeftHand  -0.25398 0.0180481 5.50724
RightShoulder  2.76988 12.2968 10.2839
RightArm  -59.0317 56.7426 -2.11849
RightForeArm  -20.8625 34.5831 8.84513
RightHand  0.0372705 2.67841 0.28112
LeftUpLeg  -55.8572 18.23 -20.2391
LeftLeg  21.0535 3.7964 1.96969
LeftFoot  4.25453 -1.41334 10.1046
LeftToes  1.06244e-005 4.65854e-005 -8.18505e-006
105
root  -61.3097 38.8139 -32.4972 24.4911 -2.0992 1.20958
RightUpLeg  -58.5543 -30.0643 21.9651
RightLeg  24.8688 -2.97379 -1.74061
RightFoot  0.830453 0.981846 -9.12999
RightToes  0.00048216 0.542163 -0.142577
Spine  66.8934 -4.75861 6.75496
Spine1  7.60862 0.791446 -4.76706
HEad  -46.722 -4.29061 -1.49634
LeftShoulder1  8.42994 -27.1705 -20.8682
LeftArm  -57.728 -66.443 2.55772
LeftForeArm  -6.2955 -21.2555 -4.75476
LeftHand  -0.25398 0.0180481 5.50724
RightShoulder  2.93297 12.3172 11.4158
RightArm  -55.6784 55.8469 0.0425826
RightForeArm  -22.1772 35.6822 9.23462
RightHand  0.0150046 2.3045 -0.000831106
LeftUpLeg  -52.7157 18.7975 -19.7565
LeftLeg  18.1974 3.4828 1.47148
LeftFoot  5.63487 -1.52219 9.93997
LeftToes  1.06244e-005 4.65854e-005 -8.18505e-006
106
root  -61.2286 39.0566 -32.5984 22.8156 -1.60269 1.007
RightUpLeg  -55.7424 -31.3285 21.3944
RightLeg  22.7124 -2.603 -1.41684
RightFoot  1.76968 0.991842 -8.50195
RightToes  0.00048216 0.542163 -0.142577
Spine  65.9673 -4.68918 7.22035
Spine1  7.9373 1.14274 -4.76341
HEad  -45.8518 -4.82988 -2.05639
LeftShoulder1  8.75111 -27.7714 -21.3883
LeftArm  -52.9292 -65.614 -2.44153
LeftForeArm  -6.06854 -22.7626 -5.1397
LeftHand  -0.25398 0.0180481 5.50724
RightShoulder  3.08948 11.9733 12.9766
RightArm  -52.8221 54.7117 1.18115
RightForeArm  -23.5142 36.8267 9.64935
RightHand  -0.0217585 2.2523 -0.554197
LeftUpLeg  -48.922 17.8058 -17.0612
LeftLeg  15.4116 5.42274 0.523399
LeftFoot  6.85484 -1.66708 10.1183
LeftToes  1.06244e-005 4.65854e-005 -8.18505e-006
107
root  -61.1628 39.2769 -32.6893 21.0758 -0.908096 0.769104
RightUpLeg  -52.1695 -32.0027 19.7397
RightLeg  20.4594 -3.64018 -1.03376
RightFoot  2.34501 0.960187 -7.84768
RightToes  0.00048216 0.542163 -0.142577
Spine  65.3528 -4.48089 7.07973
Spine1  7.98544 0.866327 -3.54292
HEad  -44.8866 -4.28486 -3.60343
LeftShoulder1  9.30077 -27.0519 -23.9825
LeftArm  -48.212 -64.7638 -5.24705
LeftForeArm  -6.32098 -25.1324 -5.70315
LeftHand  -0.25398 0.0180481 5.50724
RightShoulder  3.18452 12.4224 13.0167
RightArm  -50.3862 53.5491 3.22996
RightForeArm  -24.2428 38.267 10.1483
RightHand  -0.0581236 1.86816 -1.12598
LeftUpLeg  -44.4963 14.3478 -11.9078
LeftLeg  12.6976 10.4997 -0.985795
LeftFoot  7.94973 -1.79207 10.231
LeftToes  1.06244e-005 4.65854e-005 -8.18505e-006
108
root  -61.1248 39.4586 -32.7751 19.4792 -0.078537 0.481308
RightUpLeg  -47.1968 -30.3628 15.1863
RightLeg  18.3524 -8.21474 -0.148621
RightFoot  2.84701 0.946296 -7.43029
RightToes  0.00048216 0.542163 -0.142577
Spine  64.4462 -4.32082 7.20253
Spine1  8.37773 0.855243 -2.82958
HEad  -43.7027 -4.04556 -4.81715
LeftShoulder1  9.33391 -26.8262 -24.3427
LeftArm  -44.6706 -63.1603 -9.83445
LeftForeArm  -5.14069 -28.4117 -6.41609
LeftHand  -0.25398 0.0180481 5.50724
RightShoulder  3.25321 12.175 13.8458
RightArm  -48.6196 52.3294 4.83082
RightForeArm  -25.2196 41.0023 11.145
RightHand  -0.0786602 0.490527 -1.61659
LeftUpLeg  -40.924 10.8681 -7.65731
LeftLeg  10.2578 14.8149 -2.46079
LeftFoot  9.03126 -1.82203 9.80855
LeftToes  1.06244e-005 4.65854e-005 -8.18505e-006
